# xmcd CD database file
#
# Track frame offsets:
#	150
#	151144
#	235744
#
# Disc length: 3584 seconds
#
# Revision: 0
# Processed by: cddbd v1.5.1PL0 Copyright (c) Steve Scherf et al.
# Submitted via: CDex 1.51
#
DISCID=150dfe03
DTITLE=John McLaughlin - Zakir Hussain - T H 'Vikku' Vinayakram - Hariprasad Chaurasia - Remember Shakti CD 1/2 (Polygram 1999)
DYEAR=1999
DGENRE=Jazz
TTITLE0=John McLaughlin - Zakir Hussain - T H 'Vikku' Vinayakram - Hariprasad Chaurasia - Chandrakauns
TTITLE1=John McLaughlin - Zakir Hussain - T H 'Vikku' Vinayakram - Hariprasad Chaurasia - The Wish
TTITLE2=John McLaughlin - Zakir Hussain - T H 'Vikku' Vinayakram - Hariprasad Chaurasia - Lotus Feel
EXTD=YEAR: 1999
EXTT0=
EXTT1=
EXTT2=
PLAYORDER=
